<svg xmlns="http://www.w3.org/2000/svg" xmlns:xlink="http://www.w3.org/1999/xlink" width="300" height="250" viewBox="0 0 300 250">
  <defs>
    <linearGradient id="linear-gradient" y1="0.5" x2="1" y2="0.5" gradientUnits="objectBoundingBox">
      <stop offset="0.08" stop-color="#fff"/>
      <stop offset="0.16" stop-color="#dcd9d9"/>
      <stop offset="0.3" stop-color="#a59f9f"/>
      <stop offset="0.44" stop-color="#786f6f"/>
      <stop offset="0.56" stop-color="#554949"/>
      <stop offset="0.68" stop-color="#3c2e2e"/>
      <stop offset="0.78" stop-color="#2c1e1e"/>
      <stop offset="0.86" stop-color="#271818"/>
    </linearGradient>
    <linearGradient id="linear-gradient-2" x1="0" y1="0.5" y2="0.5" xlink:href="#linear-gradient"/>
  </defs>
  <g id="グループ_1" data-name="グループ 1" transform="translate(-321 -3175)">
    <g id="長方形_5" data-name="長方形 5" transform="translate(321 3175)" fill="#fff" stroke="#707070" stroke-width="1">
      <rect width="300" height="250" stroke="none"/>
      <rect x="0.5" y="0.5" width="299" height="249" fill="none"/>
    </g>
    <g id="レイヤー_2" data-name="レイヤー 2" transform="translate(374.968 3209.98)">
      <g id="レイヤー_1" data-name="レイヤー 1" transform="translate(1.032 0.953)">
        <path id="パス_41" data-name="パス 41" d="M135.29,76.834l1.22-.454.251.694-1.208.454" transform="translate(25.263 13.82)" fill="#0e1735"/>
        <path id="パス_42" data-name="パス 42" d="M132.87,85.864l1.22-.454.251.706-1.208.454" transform="translate(24.789 15.588)" fill="#0e1735"/>
        <path id="パス_43" data-name="パス 43" d="M164.2,61.067c0,12.246-35.625,24.144-76.7,24.144S15.46,73.313,15.46,61.067,48.765,38.92,89.83,38.92,164.2,48.834,164.2,61.067Z" transform="translate(1.794 6.483)" stroke="#f7f2f2" stroke-miterlimit="10" stroke-width="1" fill="url(#linear-gradient)"/>
        <path id="パス_44" data-name="パス 44" d="M139.874,78.005s11.205-7.8,15.283-4.664,4.066,17.376,0,22.817S130.2,111.095,130.2,111.095l2.786-6.924s19.457-7.665,19.791-12.353,2.392-15.367.335-15.367-14.434,5.31-14.434,5.31Z" transform="translate(24.266 13.079)" fill="none" stroke="#231815" stroke-miterlimit="10" stroke-width="2"/>
        <path id="パス_45" data-name="パス 45" d="M40.424,136.542c.634.67.586,1.662,0,2.87a14.076,14.076,0,0,0-1.2,3.1l-1.3-.634A13.155,13.155,0,0,1,39,139.125c.729-1.531.61-2.392-.646-3.1l-1.292-.706q-1.77,2.117-3.588,4.233l-1.2-.694q4.114-4.652,8.132-9.352a14.349,14.349,0,0,1,2.392,1,3.588,3.588,0,0,1,2.069,2.188,2.846,2.846,0,0,1-.6,2.236,3.887,3.887,0,0,1-3.839,1.567Zm-1.2-1.292a2.918,2.918,0,0,0,3.887-.741c1.088-1.471.323-2.475-.873-3.121a5.98,5.98,0,0,0-1.28-.55l-3.073,3.671Z" transform="translate(5.088 24.226)" fill="#231815"/>
        <path id="パス_46" data-name="パス 46" d="M48.266,146.047l-1.4-.526c.215-1.3.442-2.6.694-3.887-1.327-.526-2.643-1.076-3.946-1.638q-1.674,1.4-3.408,2.762l-1.315-.61a129.255,129.255,0,0,0,10.368-8.6l1.268.538C49.593,138,48.84,141.993,48.266,146.047Zm-.442-5.429q.359-1.794.753-3.588c.2-.8.419-1.531.658-2.2h0a19.083,19.083,0,0,1-1.7,1.71c-.993.9-2.009,1.77-3.049,2.631,1.076.5,2.2.981,3.336,1.423Z" transform="translate(6.383 25.017)" fill="#231815"/>
        <path id="パス_47" data-name="パス 47" d="M55.453,141.892a2.715,2.715,0,0,1,1.268,3.456,3.337,3.337,0,0,1-1.83,1.9,6.35,6.35,0,0,1-4.449-.179,18.382,18.382,0,0,1-2.212-.861c1.782-3.516,3.588-7.032,5.274-10.559a12.557,12.557,0,0,1,2.392.526,3.863,3.863,0,0,1,2.392,1.65,2.452,2.452,0,0,1,.06,2.141,3.121,3.121,0,0,1-2.882,1.878Zm-5.465,3.875a7.632,7.632,0,0,0,1.2.49c1.686.526,3.444.371,4.126-1.292s-.586-2.679-2.081-3.157l-1.2-.395C51.4,142.873,50.693,144.32,49.988,145.767Zm3.851-4.783a2.5,2.5,0,0,0,3.265-1.2h0c.538-1.3-.167-2.129-1.6-2.583a5.061,5.061,0,0,0-1.2-.287c-.574,1.2-1.2,2.451-1.746,3.671Z" transform="translate(8.212 25.428)" fill="#231815"/>
        <path id="パス_48" data-name="パス 48" d="M62.707,143.711a2.834,2.834,0,0,1,1.65,3.324,3.169,3.169,0,0,1-1.579,2.045,6.219,6.219,0,0,1-4.425.2,21.347,21.347,0,0,1-2.284-.67q1.985-5.465,3.9-10.954a13.153,13.153,0,0,1,2.392.323,4.114,4.114,0,0,1,2.631,1.435,2.5,2.5,0,0,1,.323,2.129,2.978,2.978,0,0,1-2.619,2.117Zm-4.915,4.317a6.757,6.757,0,0,0,1.292.371c1.734.395,3.456.084,3.91-1.626s-.9-2.619-2.392-2.966l-1.2-.287C58.82,145.027,58.306,146.521,57.792,148.028Zm3.193-5.178a2.392,2.392,0,0,0,3.073-1.483h0c.359-1.339-.442-2.1-1.925-2.392a5.692,5.692,0,0,0-1.2-.179c-.419,1.268-.837,2.547-1.268,3.815Z" transform="translate(9.747 25.822)" fill="#231815"/>
        <path id="パス_49" data-name="パス 49" d="M66.705,139l1.2.191q-1.112,5.716-2.392,11.444l-1.4-.215Q65.485,144.668,66.705,139Z" transform="translate(11.322 26.084)" fill="#231815"/>
        <path id="パス_50" data-name="パス 50" d="M75.989,141.11c-1.112-.06-2.224-.155-3.336-.251-.383,3.492-.8,6.984-1.2,10.476l-1.423-.143c.5-3.48.981-6.972,1.435-10.452-1.1-.12-2.2-.251-3.289-.407l.179-1.052q3.839.538,7.725.765A10.663,10.663,0,0,0,75.989,141.11Z" transform="translate(12.119 26.139)" fill="#231815"/>
        <path id="パス_51" data-name="パス 51" d="M98.575,149.781a8.371,8.371,0,0,1-3.157,1.04c-3.444.5-6.47-1.2-7.032-5.082s1.339-6.206,4.6-6.7a6.469,6.469,0,0,1,2.619,0v1.1a5.632,5.632,0,0,0-2.3-.12c-2.583.383-4.03,2.308-3.5,5.477a4.676,4.676,0,0,0,5.728,4.162,6.637,6.637,0,0,0,2.5-.885Z" transform="translate(16.058 26.066)" fill="#231815"/>
        <path id="パス_52" data-name="パス 52" d="M108.264,147.7l-1.507.419c-.957-1.076-1.889-2.141-2.81-3.229-1.447.371-2.894.706-4.353,1.016,0,1.3-.108,2.607-.2,3.91l-1.471.287a101.787,101.787,0,0,0,.431-12.054l1.423-.323Q103.756,142.836,108.264,147.7Zm-4.963-3.671c-.837-.993-1.65-1.985-2.392-2.99-.526-.706-.981-1.351-1.375-1.973h0c.1.706.132,1.447.167,2.2v3.588C100.8,144.606,102.058,144.319,103.3,144.032Z" transform="translate(17.944 25.835)" fill="#231815"/>
        <path id="パス_53" data-name="パス 53" d="M109,147.688q-2.475-5.441-5.047-10.846,2.834-.849,5.632-1.842l.55.969c-1.483.526-2.978,1.028-4.473,1.495.634,1.268,1.256,2.547,1.877,3.827,1.459-.454,2.906-.933,4.353-1.447l.538.957q-2.212.777-4.413,1.471l2.392,4.987Z" transform="translate(19.125 25.301)" fill="#231815"/>
        <path id="パス_54" data-name="パス 54" d="M123.333,142.35q-3.36,1.531-6.745,2.834-3.1-5.238-6.278-10.416,2.8-1.076,5.561-2.308l.67.909c-1.471.67-2.954,1.292-4.425,1.878l2.2,3.492c1.471-.586,2.93-1.2,4.389-1.854l.646.909c-1.471.658-2.954,1.292-4.449,1.878.837,1.339,1.674,2.667,2.5,4.006,1.77-.706,3.588-1.447,5.274-2.248Z" transform="translate(20.371 24.803)" fill="#231815"/>
        <path id="パス_55" data-name="パス 55" d="M26.992,92.749a30.483,30.483,0,0,1-2.643,6.792c-1.375,2.057,2.392-7.677-2.631-8.778s-10.631-5.979-14.35-3.588S.479,90.083,1.113,93.156s1.2,8.371,3.755,11.719,5.178,6.183,8.216,5.764a47.37,47.37,0,0,1,8.048,0s.538,6.972,5.9,6.972a26.488,26.488,0,0,1,10.87,3.014" transform="translate(-1.032 15.807)" fill="none" stroke="#231815" stroke-miterlimit="10" stroke-width="2"/>
        <path id="パス_56" data-name="パス 56" d="M115.44,47.826S157.391-.008,156.577,7.418,150.2,36.645,133.091,52.957" transform="translate(21.376 0.16)" fill="#e6c4dd"/>
        <path id="パス_57" data-name="パス 57" d="M134.29,51.666S166.231,33.3,168.169,33.3s1.842-.658,2.75,0,.658,5.5,0,5.764S160.156,53.5,140.425,56.892" transform="translate(25.067 5.324)" fill="#e6c4dd"/>
        <path id="パス_58" data-name="パス 58" d="M19.67,77.63s52.45,37.335,139.4,1.088" transform="translate(2.618 14.064)" fill="none" stroke="#0e1736" stroke-miterlimit="10" stroke-width="4"/>
        <path id="パス_59" data-name="パス 59" d="M21.72,87.08s56.863,32.934,133.852,0" transform="translate(3.02 15.915)" fill="none" stroke="#0e1736" stroke-miterlimit="10" stroke-width="3"/>
        <path id="パス_60" data-name="パス 60" d="M136.869,52.658c8.718-2.691,24.73-33.352,22.231-49.03s-51.96,42.68-51.96,42.68" transform="translate(19.75 -0.953)" fill="none" stroke="#231815" stroke-miterlimit="10" stroke-width="2"/>
        <path id="パス_61" data-name="パス 61" d="M137.92,41.042s39.762-21.322,34.967-6.781-19.325,21.418-32.587,23.4" transform="translate(25.778 4.576)" fill="none" stroke="#231815" stroke-miterlimit="10" stroke-width="2"/>
        <path id="パス_62" data-name="パス 62" d="M164.418,61.2c0,12.82-35.708,25.28-76.858,25.28S15.33,74.019,15.33,61.2,48.706,38,89.856,38,164.418,48.392,164.418,61.2Z" transform="translate(1.768 6.303)" stroke="#060404" stroke-miterlimit="10" stroke-width="2" fill="url(#linear-gradient-2)"/>
        <line id="線_6" data-name="線 6" x1="2.595" y1="2.679" transform="translate(20.746 88.418)" fill="none" stroke="#0e1736" stroke-miterlimit="10" stroke-width="2"/>
        <line id="線_7" data-name="線 7" x1="1.339" y1="1.064" transform="translate(23.675 101.489)" fill="none" stroke="#0e1736" stroke-miterlimit="10" stroke-width="2"/>
        <path id="パス_63" data-name="パス 63" d="M165.588,57.294s-12.09,58.908-17.3,64.361-16.658,18.739-23.355,21.609-17.938,3.588-20.33,3.779-26.309,2.846-36.533,0-27.5-10.44-30.6-16.85S24.178,100.465,21.8,91.137c0,0-6.494-26.62-6.338-34.967" transform="translate(1.793 9.861)" fill="none" stroke="#231815" stroke-miterlimit="10" stroke-width="2"/>
      </g>
    </g>
  </g>
</svg>
