<?xml version="1.0" ?><svg style="enable-background:new 0 0 512 512;" version="1.1" viewBox="0 0 512 512" xml:space="preserve" xmlns="http://www.w3.org/2000/svg" xmlns:xlink="http://www.w3.org/1999/xlink"><style type="text/css">
	.st0{fill:#21759B;}
	.st1{opacity:0.2;fill:#FFFFFF;}
	.st2{fill:#E7E7E7;}
</style><g id="outerdark"><path class="st0" d="M256.5,20C126.4,20,21,125.4,21,255.5S126.4,491,256.5,491S492,385.6,492,255.5S386.6,20,256.5,20z M256,460.5   c-112.9,0-204.5-91.6-204.5-204.5S143.1,51.5,256,51.5S460.5,143.1,460.5,256S368.9,460.5,256,460.5z"/></g><g id="outerlight"><path class="st1" d="M423.1,89l-22.4,22.4c37,37,59.8,88.1,59.8,144.6c0,112.9-91.6,204.5-204.5,204.5   c-56.4,0-107.6-22.9-144.6-59.8L90,422.1c92,92,241.1,92,333,0S515,181,423.1,89z"/></g><g id="innerdark"><circle class="st0" cx="256" cy="256" r="180"/></g><g id="innerlight"><path class="st1" d="M128.1,382.6c-70.3-70.3-70.3-184.3,0-254.6s184.3-70.3,254.6,0"/></g><g id="Layer_8"><g id="iamQmL_1_"><g><path class="st2" d="M256.1,356.5c-55.5,0-100.8-45.2-100.6-100.9c0.2-55.4,45.1-100.4,100.9-100.2     c55.4,0.2,100.4,45.2,100.2,101.1C356.2,311.8,311.4,356.3,256.1,356.5z M316.9,189.2c0-0.1,0.1-0.3,0.1-0.4     c-21.4-18.6-46.2-26.5-74.4-22.4c-26.5,3.9-47,17.6-62.4,39.9c1.3,0.1,2.3,0.3,3.2,0.2c8.8-0.4,17.6-0.7,26.3-1.1     c2.6-0.1,4.3,1,4.5,3.3c0.2,2.2-1.2,3.7-3.7,4c-1.6,0.2-3.1,0.3-4.7,0.4c-1.7,0.1-3.4,0.3-5.3,0.5c11,32.8,22,65.3,33,98.2     c0.3-0.6,0.4-0.7,0.4-0.8c6.4-19.3,12.9-38.5,19.2-57.8c0.2-0.7,0.1-1.6-0.2-2.3c-4.3-12-8.7-23.9-13-35.9     c-0.4-1.1-0.9-1.6-2.2-1.6c-2.6-0.1-5.3-0.4-7.9-0.7c-1.4-0.1-2.6-0.8-3.1-2.2c-1-2.8,1-5.2,4.2-5c7.1,0.4,14.2,1.1,21.3,1.1     c8.5,0,16.9-0.6,25.4-1.1c2.5-0.1,4.2,1,4.4,3.2c0.2,2.3-1.2,3.9-3.8,4.1c-1.6,0.2-3.1,0.3-4.7,0.4c-1.7,0.1-3.4,0.3-5.3,0.5     c10.9,32.5,21.8,64.8,32.6,97c0.6-0.6,0.8-1.1,0.9-1.6c1.8-6,3.5-12,5.4-18c2.7-8.6,5.6-17.2,8-25.9c2.8-9.9,2.9-20-1.2-29.7     c-2.2-5.1-5.2-9.9-7.9-14.8c-2.2-4-4.3-7.9-5.1-12.5c-1.5-8.4,3.9-16.7,12-18.4C314.3,189.4,315.6,189.4,316.9,189.2z M257.8,264     c-0.1,0-0.2,0-0.4,0c-9,26.2-18.1,52.5-27.2,78.9c19,5.4,37.4,4.9,55.8-1.4C276.6,315.5,267.2,289.7,257.8,264z M173.4,218.8     c-6.6,14.9-9.1,30-7.6,45.7c1.5,15.7,6.7,30.1,15.8,43.1c9,12.9,20.6,22.9,35,29.5C202.2,297.8,187.9,258.5,173.4,218.8z      M335.4,212.6c0,0.6,0,0.9,0.1,1.1c0.7,6.5,0.6,12.9-0.4,19.4c-1.2,7.4-3.6,14.5-6.1,21.6c-9.1,26-18,52-27,78     c-0.2,0.5-0.3,0.9-0.4,1.6C346.7,308.2,357.7,251.6,335.4,212.6z"/></g></g></g></svg>